{
  "accessors": [
    {
      "bufferView": 2,
      "componentType": 5126,
      "count": 65532,
      "max": [
        0.6319838166236877,
        0.36030009388923645,
        1.9215008020401
      ],
      "min": [
        -0.6540837287902832,
        -0.08870010823011398,
        -1.041304349899292
      ],
      "type": "VEC3"
    },
    {
      "bufferView": 2,
      "byteOffset": 786384,
      "componentType": 5126,
      "count": 65532,
      "max": [
        1.0,
        0.99998539686203,
        0.9999857544898987
      ],
      "min": [
        -1.0,
        -0.9999961853027344,
        -0.9999738335609436
      ],
      "type": "VEC3"
    },
    {
      "bufferView": 3,
      "componentType": 5126,
      "count": 65532,
      "max": [
        0.9999992251396179,
        0.9999998211860657,
        0.9999966621398926,
        1.0
      ],
      "min": [
        -1.0,
        -0.9999999403953552,
        -0.9999994039535522,
        -1.0
      ],
      "type": "VEC4"
    },
    {
      "bufferView": 1,
      "componentType": 5126,
      "count": 65532,
      "max": [
        0.9976802468299866,
        0.9932126402854919
      ],
      "min": [
        0.00220731389708817,
        0.002039451152086258
      ],
      "type": "VEC2"
    },
    {
      "bufferView": 1,
      "byteOffset": 524256,
      "componentType": 5126,
      "count": 65532,
      "max": [
        0.9976802468299866,
        0.9932126402854919
      ],
      "min": [
        0.00220731389708817,
        0.002039451152086258
      ],
      "type": "VEC2"
    },
    {
      "bufferView": 1,
      "byteOffset": 1048512,
      "componentType": 5126,
      "count": 65532,
      "max": [
        0.9976802468299866,
        0.9932126402854919
      ],
      "min": [
        0.00220731389708817,
        0.002039451152086258
      ],
      "type": "VEC2"
    },
    {
      "bufferView": 1,
      "byteOffset": 1572768,
      "componentType": 5126,
      "count": 65532,
      "max": [
        0.9976802468299866,
        0.9932126402854919
      ],
      "min": [
        0.00220731389708817,
        0.002039451152086258
      ],
      "type": "VEC2"
    },
    {
      "bufferView": 0,
      "componentType": 5125,
      "count": 343983,
      "type": "SCALAR"
    },
    {
      "bufferView": 2,
      "byteOffset": 1572768,
      "componentType": 5126,
      "count": 65532,
      "max": [
        0.6540837287902832,
        0.6509133577346802,
        1.9215008020401
      ],
      "min": [
        -0.5098424553871155,
        -0.07412408292293549,
        -1.8153434991836548
      ],
      "type": "VEC3"
    },
    {
      "bufferView": 2,
      "byteOffset": 2359152,
      "componentType": 5126,
      "count": 65532,
      "max": [
        1.0,
        1.0,
        1.0
      ],
      "min": [
        -1.0,
        -1.0,
        -1.0
      ],
      "type": "VEC3"
    },
    {
      "bufferView": 3,
      "byteOffset": 1048512,
      "componentType": 5126,
      "count": 65532,
      "max": [
        1.0,
        1.0,
        1.0,
        1.0
      ],
      "min": [
        -1.0,
        -1.0,
        -1.0,
        -1.0
      ],
      "type": "VEC4"
    },
    {
      "bufferView": 1,
      "byteOffset": 2097024,
      "componentType": 5126,
      "count": 65532,
      "max": [
        0.9979341626167297,
        0.9959367513656616
      ],
      "min": [
        0.002042170614004135,
        0.002037384081631899
      ],
      "type": "VEC2"
    },
    {
      "bufferView": 1,
      "byteOffset": 2621280,
      "componentType": 5126,
      "count": 65532,
      "max": [
        0.9979341626167297,
        0.9959367513656616
      ],
      "min": [
        0.002042170614004135,
        0.002037384081631899
      ],
      "type": "VEC2"
    },
    {
      "bufferView": 1,
      "byteOffset": 3145536,
      "componentType": 5126,
      "count": 65532,
      "max": [
        0.9979341626167297,
        0.9959367513656616
      ],
      "min": [
        0.002042170614004135,
        0.002037384081631899
      ],
      "type": "VEC2"
    },
    {
      "bufferView": 1,
      "byteOffset": 3669792,
      "componentType": 5126,
      "count": 65532,
      "max": [
        0.9979341626167297,
        0.9959367513656616
      ],
      "min": [
        0.002042170614004135,
        0.002037384081631899
      ],
      "type": "VEC2"
    },
    {
      "bufferView": 0,
      "byteOffset": 1375932,
      "componentType": 5125,
      "count": 333141,
      "type": "SCALAR"
    },
    {
      "bufferView": 2,
      "byteOffset": 3145536,
      "componentType": 5126,
      "count": 65532,
      "max": [
        0.6933637261390686,
        0.6674150824546814,
        -0.14944006502628326
      ],
      "min": [
        -0.6933637261390686,
        -0.1379772573709488,
        -1.5929615497589111
      ],
      "type": "VEC3"
    },
    {
      "bufferView": 2,
      "byteOffset": 3931920,
      "componentType": 5126,
      "count": 65532,
      "max": [
        1.0,
        1.0,
        0.9999997019767761
      ],
      "min": [
        -1.0,
        -0.9999989867210388,
        -1.0
      ],
      "type": "VEC3"
    },
    {
      "bufferView": 3,
      "byteOffset": 2097024,
      "componentType": 5126,
      "count": 65532,
      "max": [
        1.0,
        0.999994158744812,
        0.9999995827674866,
        1.0
      ],
      "min": [
        -1.0,
        -0.9999540448188782,
        -0.999991238117218,
        -1.0
      ],
      "type": "VEC4"
    },
    {
      "bufferView": 1,
      "byteOffset": 4194048,
      "componentType": 5126,
      "count": 65532,
      "max": [
        0.8733389973640442,
        0.9139854311943054
      ],
      "min": [
        0.08432195335626602,
        0.0020479143131524324
      ],
      "type": "VEC2"
    },
    {
      "bufferView": 1,
      "byteOffset": 4718304,
      "componentType": 5126,
      "count": 65532,
      "max": [
        0.8733389973640442,
        0.9139854311943054
      ],
      "min": [
        0.08432195335626602,
        0.0020479143131524324
      ],
      "type": "VEC2"
    },
    {
      "bufferView": 1,
      "byteOffset": 5242560,
      "componentType": 5126,
      "count": 65532,
      "max": [
        0.8733389973640442,
        0.9139854311943054
      ],
      "min": [
        0.08432195335626602,
        0.0020479143131524324
      ],
      "type": "VEC2"
    },
    {
      "bufferView": 1,
      "byteOffset": 5766816,
      "componentType": 5126,
      "count": 65532,
      "max": [
        0.8733389973640442,
        0.9139854311943054
      ],
      "min": [
        0.08432195335626602,
        0.0020479143131524324
      ],
      "type": "VEC2"
    },
    {
      "bufferView": 0,
      "byteOffset": 2708496,
      "componentType": 5125,
      "count": 245919,
      "type": "SCALAR"
    },
    {
      "bufferView": 2,
      "byteOffset": 4718304,
      "componentType": 5126,
      "count": 65532,
      "max": [
        0.6914973855018616,
        0.4454004466533661,
        1.3039730787277222
      ],
      "min": [
        -0.6821481585502625,
        -0.1379772424697876,
        -1.5929615497589111
      ],
      "type": "VEC3"
    },
    {
      "bufferView": 2,
      "byteOffset": 5504688,
      "componentType": 5126,
      "count": 65532,
      "max": [
        1.0,
        1.0,
        1.0
      ],
      "min": [
        -1.0,
        -1.0,
        -1.0
      ],
      "type": "VEC3"
    },
    {
      "bufferView": 3,
      "byteOffset": 3145536,
      "componentType": 5126,
      "count": 65532,
      "max": [
        1.0,
        0.9999999403953552,
        1.0,
        1.0
      ],
      "min": [
        -0.9999998807907104,
        -0.9999992847442627,
        -1.0,
        -1.0
      ],
      "type": "VEC4"
    },
    {
      "bufferView": 1,
      "byteOffset": 6291072,
      "componentType": 5126,
      "count": 65532,
      "max": [
        0.9494689702987671,
        0.9294581413269043
      ],
      "min": [
        0.00209877360612154,
        0.002039343351498246
      ],
      "type": "VEC2"
    },
    {
      "bufferView": 1,
      "byteOffset": 6815328,
      "componentType": 5126,
      "count": 65532,
      "max": [
        0.9494689702987671,
        0.9294581413269043
      ],
      "min": [
        0.00209877360612154,
        0.002039343351498246
      ],
      "type": "VEC2"
    },
    {
      "bufferView": 1,
      "byteOffset": 7339584,
      "componentType": 5126,
      "count": 65532,
      "max": [
        0.9494689702987671,
        0.9294581413269043
      ],
      "min": [
        0.00209877360612154,
        0.002039343351498246
      ],
      "type": "VEC2"
    },
    {
      "bufferView": 1,
      "byteOffset": 7863840,
      "componentType": 5126,
      "count": 65532,
      "max": [
        0.9494689702987671,
        0.9294581413269043
      ],
      "min": [
        0.00209877360612154,
        0.002039343351498246
      ],
      "type": "VEC2"
    },
    {
      "bufferView": 0,
      "byteOffset": 3692172,
      "componentType": 5125,
      "count": 291858,
      "type": "SCALAR"
    },
    {
      "bufferView": 2,
      "byteOffset": 6291072,
      "componentType": 5126,
      "count": 65532,
      "max": [
        0.688567578792572,
        0.5573659539222717,
        1.3039730787277222
      ],
      "min": [
        -0.6821481585502625,
        -0.1352563053369522,
        -1.8153433799743652
      ],
      "type": "VEC3"
    },
    {
      "bufferView": 2,
      "byteOffset": 7077456,
      "componentType": 5126,
      "count": 65532,
      "max": [
        1.0,
        1.0,
        1.0
      ],
      "min": [
        -1.0,
        -1.0,
        -1.0
      ],
      "type": "VEC3"
    },
    {
      "bufferView": 3,
      "byteOffset": 4194048,
      "componentType": 5126,
      "count": 65532,
      "max": [
        1.0,
        1.0,
        1.0,
        1.0
      ],
      "min": [
        -0.999993085861206,
        -1.0,
        -1.0,
        -1.0
      ],
      "type": "VEC4"
    },
    {
      "bufferView": 1,
      "byteOffset": 8388096,
      "componentType": 5126,
      "count": 65532,
      "max": [
        0.9951410889625549,
        0.9874151945114136
      ],
      "min": [
        0.002049088478088379,
        0.0020377866458147764
      ],
      "type": "VEC2"
    },
    {
      "bufferView": 1,
      "byteOffset": 8912352,
      "componentType": 5126,
      "count": 65532,
      "max": [
        0.9951410889625549,
        0.9874151945114136
      ],
      "min": [
        0.002049088478088379,
        0.0020377866458147764
      ],
      "type": "VEC2"
    },
    {
      "bufferView": 1,
      "byteOffset": 9436608,
      "componentType": 5126,
      "count": 65532,
      "max": [
        0.9951410889625549,
        0.9874151945114136
      ],
      "min": [
        0.002049088478088379,
        0.0020377866458147764
      ],
      "type": "VEC2"
    },
    {
      "bufferView": 1,
      "byteOffset": 9960864,
      "componentType": 5126,
      "count": 65532,
      "max": [
        0.9951410889625549,
        0.9874151945114136
      ],
      "min": [
        0.002049088478088379,
        0.0020377866458147764
      ],
      "type": "VEC2"
    },
    {
      "bufferView": 0,
      "byteOffset": 4859604,
      "componentType": 5125,
      "count": 339945,
      "type": "SCALAR"
    },
    {
      "bufferView": 2,
      "byteOffset": 7863840,
      "componentType": 5126,
      "count": 65532,
      "max": [
        0.5098423957824707,
        0.3928927779197693,
        1.8167829513549805
      ],
      "min": [
        -0.5260266661643982,
        -0.07412408292293549,
        -1.7518491744995117
      ],
      "type": "VEC3"
    },
    {
      "bufferView": 2,
      "byteOffset": 8650224,
      "componentType": 5126,
      "count": 65532,
      "max": [
        1.0,
        1.0,
        0.9999578595161438
      ],
      "min": [
        -1.0,
        -1.0,
        -0.999998152256012
      ],
      "type": "VEC3"
    },
    {
      "bufferView": 3,
      "byteOffset": 5242560,
      "componentType": 5126,
      "count": 65532,
      "max": [
        1.0,
        0.999981164932251,
        1.0,
        1.0
      ],
      "min": [
        -1.0,
        -0.9999998807907104,
        -1.0,
        -1.0
      ],
      "type": "VEC4"
    },
    {
      "bufferView": 1,
      "byteOffset": 10485120,
      "componentType": 5126,
      "count": 65532,
      "max": [
        0.9978928565979004,
        0.9976522922515869
      ],
      "min": [
        0.0020415293984115124,
        0.002043189713731408
      ],
      "type": "VEC2"
    },
    {
      "bufferView": 1,
      "byteOffset": 11009376,
      "componentType": 5126,
      "count": 65532,
      "max": [
        0.9978928565979004,
        0.9976522922515869
      ],
      "min": [
        0.0020415293984115124,
        0.002043189713731408
      ],
      "type": "VEC2"
    },
    {
      "bufferView": 1,
      "byteOffset": 11533632,
      "componentType": 5126,
      "count": 65532,
      "max": [
        0.9978928565979004,
        0.9976522922515869
      ],
      "min": [
        0.0020415293984115124,
        0.002043189713731408
      ],
      "type": "VEC2"
    },
    {
      "bufferView": 1,
      "byteOffset": 12057888,
      "componentType": 5126,
      "count": 65532,
      "max": [
        0.9978928565979004,
        0.9976522922515869
      ],
      "min": [
        0.0020415293984115124,
        0.002043189713731408
      ],
      "type": "VEC2"
    },
    {
      "bufferView": 0,
      "byteOffset": 6219384,
      "componentType": 5125,
      "count": 331089,
      "type": "SCALAR"
    },
    {
      "bufferView": 2,
      "byteOffset": 9436608,
      "componentType": 5126,
      "count": 27945,
      "max": [
        0.5098423957824707,
        0.5712027549743652,
        1.8042720556259155
      ],
      "min": [
        -0.5071287155151367,
        -0.07412408292293549,
        -1.7589093446731567
      ],
      "type": "VEC3"
    },
    {
      "bufferView": 2,
      "byteOffset": 9771948,
      "componentType": 5126,
      "count": 27945,
      "max": [
        1.0,
        1.0,
        1.0
      ],
      "min": [
        -1.0,
        -1.0,
        -1.0
      ],
      "type": "VEC3"
    },
    {
      "bufferView": 3,
      "byteOffset": 6291072,
      "componentType": 5126,
      "count": 27945,
      "max": [
        1.0,
        1.0,
        0.9999968409538269,
        1.0
      ],
      "min": [
        -1.0,
        -0.9999971389770508,
        -1.0,
        -1.0
      ],
      "type": "VEC4"
    },
    {
      "bufferView": 1,
      "byteOffset": 12582144,
      "componentType": 5126,
      "count": 27945,
      "max": [
        0.9725894331932068,
        0.9929989576339722
      ],
      "min": [
        0.0020421703811734915,
        0.0020435687620192766
      ],
      "type": "VEC2"
    },
    {
      "bufferView": 1,
      "byteOffset": 12805704,
      "componentType": 5126,
      "count": 27945,
      "max": [
        0.9725894331932068,
        0.9929989576339722
      ],
      "min": [
        0.0020421703811734915,
        0.0020435687620192766
      ],
      "type": "VEC2"
    },
    {
      "bufferView": 1,
      "byteOffset": 13029264,
      "componentType": 5126,
      "count": 27945,
      "max": [
        0.9725894331932068,
        0.9929989576339722
      ],
      "min": [
        0.0020421703811734915,
        0.0020435687620192766
      ],
      "type": "VEC2"
    },
    {
      "bufferView": 1,
      "byteOffset": 13252824,
      "componentType": 5126,
      "count": 27945,
      "max": [
        0.9725894331932068,
        0.9929989576339722
      ],
      "min": [
        0.0020421703811734915,
        0.0020435687620192766
      ],
      "type": "VEC2"
    },
    {
      "bufferView": 0,
      "byteOffset": 7543740,
      "componentType": 5125,
      "count": 139041,
      "type": "SCALAR"
    }
  ],
  "asset": {
    "extras": {
      "author": "Redgrund (https://sketchfab.com/redgrund)",
      "license": "CC-BY-4.0 (http://creativecommons.org/licenses/by/4.0/)",
      "source": "https://sketchfab.com/3d-models/oracle-red-bull-f1-car-rb19-2023-e4afe46f3aab4b23a418da06fc163821",
      "title": "Oracle Red Bull F1 Car RB19 2023"
    },
    "generator": "Sketchfab-15.86.0",
    "version": "2.0"
  },
  "bufferViews": [
    {
      "buffer": 0,
      "byteLength": 8099904,
      "name": "floatBufferViews",
      "target": 34963
    },
    {
      "buffer": 0,
      "byteLength": 13476384,
      "byteOffset": 8099904,
      "byteStride": 8,
      "name": "floatBufferViews",
      "target": 34962
    },
    {
      "buffer": 0,
      "byteLength": 10107288,
      "byteOffset": 21576288,
      "byteStride": 12,
      "name": "floatBufferViews",
      "target": 34962
    },
    {
      "buffer": 0,
      "byteLength": 6738192,
      "byteOffset": 31683576,
      "byteStride": 16,
      "name": "floatBufferViews",
      "target": 34962
    }
  ],
  "buffers": [
    {
      "byteLength": 38421768,
      "uri": "scene.bin"
    }
  ],
  "extensionsUsed": [
    "KHR_materials_clearcoat",
    "KHR_materials_specular"
  ],
  "images": [
    {
      "uri": "textures/Full_Body_Baked_baseColor.png"
    },
    {
      "uri": "textures/Full_Body_Baked_metallicRoughness.png"
    },
    {
      "uri": "textures/Full_Body_Baked_normal.png"
    }
  ],
  "materials": [
    {
      "doubleSided": true,
      "extensions": {
        "KHR_materials_clearcoat": {
          "clearcoatFactor": 0.2971437627238483,
          "clearcoatRoughnessFactor": 0.04
        },
        "KHR_materials_specular": {
          "specularColorFactor": [
            1.0,
            1.0,
            1.0
          ],
          "specularFactor": 0.30933427606636515
        }
      },
      "name": "Full_Body_Baked",
      "normalTexture": {
        "index": 2,
        "texCoord": 2
      },
      "pbrMetallicRoughness": {
        "baseColorTexture": {
          "index": 0
        },
        "metallicFactor": 0.4556204361765674,
        "metallicRoughnessTexture": {
          "index": 1,
          "texCoord": 1
        },
        "roughnessFactor": 0.9493362265484999
      }
    }
  ],
  "meshes": [
    {
      "name": "Object_0",
      "primitives": [
        {
          "attributes": {
            "NORMAL": 1,
            "POSITION": 0,
            "TANGENT": 2,
            "TEXCOORD_0": 3,
            "TEXCOORD_1": 4,
            "TEXCOORD_2": 5,
            "TEXCOORD_3": 6
          },
          "indices": 7,
          "material": 0,
          "mode": 4
        }
      ]
    },
    {
      "name": "Object_1",
      "primitives": [
        {
          "attributes": {
            "NORMAL": 9,
            "POSITION": 8,
            "TANGENT": 10,
            "TEXCOORD_0": 11,
            "TEXCOORD_1": 12,
            "TEXCOORD_2": 13,
            "TEXCOORD_3": 14
          },
          "indices": 15,
          "material": 0,
          "mode": 4
        }
      ]
    },
    {
      "name": "Object_2",
      "primitives": [
        {
          "attributes": {
            "NORMAL": 17,
            "POSITION": 16,
            "TANGENT": 18,
            "TEXCOORD_0": 19,
            "TEXCOORD_1": 20,
            "TEXCOORD_2": 21,
            "TEXCOORD_3": 22
          },
          "indices": 23,
          "material": 0,
          "mode": 4
        }
      ]
    },
    {
      "name": "Object_3",
      "primitives": [
        {
          "attributes": {
            "NORMAL": 25,
            "POSITION": 24,
            "TANGENT": 26,
            "TEXCOORD_0": 27,
            "TEXCOORD_1": 28,
            "TEXCOORD_2": 29,
            "TEXCOORD_3": 30
          },
          "indices": 31,
          "material": 0,
          "mode": 4
        }
      ]
    },
    {
      "name": "Object_4",
      "primitives": [
        {
          "attributes": {
            "NORMAL": 33,
            "POSITION": 32,
            "TANGENT": 34,
            "TEXCOORD_0": 35,
            "TEXCOORD_1": 36,
            "TEXCOORD_2": 37,
            "TEXCOORD_3": 38
          },
          "indices": 39,
          "material": 0,
          "mode": 4
        }
      ]
    },
    {
      "name": "Object_5",
      "primitives": [
        {
          "attributes": {
            "NORMAL": 41,
            "POSITION": 40,
            "TANGENT": 42,
            "TEXCOORD_0": 43,
            "TEXCOORD_1": 44,
            "TEXCOORD_2": 45,
            "TEXCOORD_3": 46
          },
          "indices": 47,
          "material": 0,
          "mode": 4
        }
      ]
    },
    {
      "name": "Object_6",
      "primitives": [
        {
          "attributes": {
            "NORMAL": 49,
            "POSITION": 48,
            "TANGENT": 50,
            "TEXCOORD_0": 51,
            "TEXCOORD_1": 52,
            "TEXCOORD_2": 53,
            "TEXCOORD_3": 54
          },
          "indices": 55,
          "material": 0,
          "mode": 4
        }
      ]
    }
  ],
  "nodes": [
    {
      "children": [
        1
      ],
      "matrix": [
        1.0,
        0.0,
        0.0,
        0.0,
        0.0,
        2.220446049250313e-16,
        -1.0,
        0.0,
        0.0,
        1.0,
        2.220446049250313e-16,
        0.0,
        0.0,
        0.0,
        0.0,
        1.0
      ],
      "name": "Sketchfab_model"
    },
    {
      "children": [
        2
      ],
      "name": "root"
    },
    {
      "children": [
        3
      ],
      "matrix": [
        1.0,
        0.0,
        0.0,
        0.0,
        0.0,
        2.220446049250313e-16,
        1.0,
        0.0,
        0.0,
        -1.0,
        2.220446049250313e-16,
        0.0,
        0.0,
        0.0,
        0.0,
        1.0
      ],
      "name": "GLTF_SceneRootNode"
    },
    {
      "children": [
        4,
        5,
        6,
        7,
        8,
        9,
        10
      ],
      "matrix": [
        1.0,
        0.0,
        0.0,
        0.0,
        0.0,
        1.0,
        0.0,
        0.0,
        0.0,
        0.0,
        1.0,
        0.0,
        0.0,
        0.13751843571662903,
        0.32441750168800354,
        1.0
      ],
      "name": "Full Body_Baked_2"
    },
    {
      "mesh": 0,
      "name": "Object_4"
    },
    {
      "mesh": 1,
      "name": "Object_5"
    },
    {
      "mesh": 2,
      "name": "Object_6"
    },
    {
      "mesh": 3,
      "name": "Object_7"
    },
    {
      "mesh": 4,
      "name": "Object_8"
    },
    {
      "mesh": 5,
      "name": "Object_9"
    },
    {
      "mesh": 6,
      "name": "Object_10"
    }
  ],
  "samplers": [
    {
      "magFilter": 9729,
      "minFilter": 9987,
      "wrapS": 10497,
      "wrapT": 10497
    }
  ],
  "scene": 0,
  "scenes": [
    {
      "name": "Sketchfab_Scene",
      "nodes": [
        0
      ]
    }
  ],
  "textures": [
    {
      "sampler": 0,
      "source": 0
    },
    {
      "sampler": 0,
      "source": 1
    },
    {
      "sampler": 0,
      "source": 2
    }
  ]
}
